<svg width="30" height="30" viewBox="0 0 30 30" fill="none" xmlns="http://www.w3.org/2000/svg">
<rect width="30" height="30" rx="15" fill="white"/>
<path d="M8.68945 20H7.74023V13.8945C7.74023 13.3867 7.75586 12.9062 7.78711 12.4531C7.70508 12.5352 7.61328 12.6211 7.51172 12.7109C7.41016 12.8008 6.94531 13.1816 6.11719 13.8535L5.60156 13.1855L7.86914 11.4336H8.68945V20ZM17.584 20H11.9531V19.1621L14.209 16.8945C14.8965 16.1992 15.3496 15.7031 15.5684 15.4062C15.7871 15.1094 15.9512 14.8203 16.0605 14.5391C16.1699 14.2578 16.2246 13.9551 16.2246 13.6309C16.2246 13.1738 16.0859 12.8125 15.8086 12.5469C15.5312 12.2773 15.1465 12.1426 14.6543 12.1426C14.2988 12.1426 13.9609 12.2012 13.6406 12.3184C13.3242 12.4355 12.9707 12.6484 12.5801 12.957L12.0645 12.2949C12.8535 11.6387 13.7129 11.3105 14.6426 11.3105C15.4473 11.3105 16.0781 11.5176 16.5352 11.9316C16.9922 12.3418 17.2207 12.8945 17.2207 13.5898C17.2207 14.1328 17.0684 14.6699 16.7637 15.2012C16.459 15.7324 15.8887 16.4043 15.0527 17.2168L13.1777 19.0508V19.0977H17.584V20ZM22.0605 15.3652H24.4746V16.1738H22.0605V18.6699H21.2461V16.1738H18.8438V15.3652H21.2461V12.8574H22.0605V15.3652Z" fill="#A1A6B4"/>
</svg>
